# Blender 3.1.0
# www.blender.org
mtllib CuboChaflan.mtl
o Cubo chaflan
v -0.050000 -0.045000 0.045000
v -0.050000 0.045000 0.045000
v -0.050000 0.045000 -0.045000
v -0.050000 -0.045000 -0.045000
v -0.045000 -0.045000 -0.050000
v -0.047500 -0.047500 -0.047500
v -0.047500 0.047500 -0.047500
v -0.045000 0.045000 -0.050000
v -0.045000 0.050000 -0.045000
v -0.045000 0.050000 0.045000
v -0.047500 0.047500 0.047500
v -0.045000 -0.045000 0.050000
v -0.050000 -0.045000 0.045000
v -0.047500 -0.047500 0.047500
v -0.045000 0.045000 0.050000
v -0.050000 0.045000 0.045000
v -0.047500 0.047500 0.047500
v -0.045000 -0.050000 -0.045000
v -0.045000 -0.050000 0.045000
v -0.047500 -0.047500 0.047500
v 0.045000 -0.045000 -0.050000
v 0.047500 -0.047500 -0.047500
v 0.045000 -0.050000 -0.045000
v -0.045000 -0.045000 -0.050000
v -0.045000 -0.050000 -0.045000
v -0.047500 -0.047500 -0.047500
v -0.045000 0.045000 -0.050000
v 0.045000 0.045000 -0.050000
v 0.045000 0.050000 -0.045000
v 0.047500 0.047500 -0.047500
v -0.045000 0.050000 -0.045000
v -0.047500 0.047500 -0.047500
v 0.025000 0.050000 0.045000
v -0.045000 0.050000 -0.045000
v -0.045000 0.050000 0.045000
v 0.045000 0.050000 -0.045000
v 0.045000 0.050000 0.025000
v -0.047500 0.047500 0.047500
v -0.045000 0.045000 0.050000
v 0.027071 0.045000 0.050000
v 0.045000 -0.045000 0.050000
v 0.045000 0.032322 0.050000
v -0.045000 -0.045000 0.050000
v -0.045000 -0.050000 0.045000
v 0.045000 -0.050000 0.045000
v 0.045000 -0.045000 0.050000
v 0.047500 -0.047500 0.047500
v -0.045000 -0.050000 0.045000
v 0.045000 -0.050000 -0.045000
v 0.045000 -0.050000 0.045000
v -0.045000 -0.050000 -0.045000
v 0.050000 -0.045000 0.045000
v 0.047500 -0.047500 0.047500
v 0.045000 -0.050000 0.045000
v 0.050000 -0.045000 -0.045000
v 0.050000 0.045000 -0.045000
v 0.050000 0.045000 -0.045000
v 0.050000 0.045000 0.027071
v 0.047500 0.047500 -0.047500
v 0.050000 0.032322 0.045000
v 0.050000 -0.045000 0.045000
v 0.047500 -0.047500 0.047500
v 0.050000 -0.045000 -0.045000
vn -1.0000 -0.0000 -0.0000
vn -0.7071 -0.0000 -0.7071
vn -0.7071 0.7071 -0.0000
vn -0.7071 -0.0000 0.7071
vn -0.7071 -0.7071 -0.0000
vn -0.0000 -0.7071 -0.7071
vn -0.0000 -0.0000 -1.0000
vn -0.0000 0.7071 -0.7071
vn -0.0000 1.0000 -0.0000
vn -0.0000 0.7071 0.7071
vn -0.0000 -0.0000 1.0000
vn -0.0000 -0.7071 0.7071
vn -0.0000 -1.0000 -0.0000
vn 0.7071 -0.7071 -0.0000
vn 0.7071 -0.0000 -0.7071
vn 0.7071 0.7071 -0.0000
vn 0.5000 0.7071 0.5000
vn 0.7071 -0.0000 0.7071
vn 1.0000 -0.0000 -0.0000
s 1
usemtl Default_OBJ
f 1//1 2//1 3//1
f 4//1 1//1 3//1
f 4//2 5//2 6//2
f 3//2 7//2 8//2
f 3//2 8//2 5//2
f 3//2 5//2 4//2
f 9//3 7//3 3//3
f 10//3 3//3 2//3
f 10//3 2//3 11//3
f 10//3 9//3 3//3
f 12//4 13//4 14//4
f 15//4 16//4 13//4
f 15//4 17//4 16//4
f 15//4 13//4 12//4
f 4//5 6//5 18//5
f 19//5 4//5 18//5
f 1//5 19//5 20//5
f 1//5 4//5 19//5
f 21//6 22//6 23//6
f 24//6 25//6 26//6
f 24//6 23//6 25//6
f 24//6 21//6 23//6
f 24//7 27//7 28//7
f 21//7 24//7 28//7
f 29//8 30//8 28//8
f 27//8 29//8 28//8
f 31//8 27//8 32//8
f 31//8 29//8 27//8
f 33//9 34//9 35//9
f 36//9 34//9 37//9
f 37//9 34//9 33//9
f 35//10 38//10 39//10
f 33//10 39//10 40//10
f 33//10 35//10 39//10
f 41//11 42//11 40//11
f 43//11 40//11 39//11
f 43//11 41//11 40//11
f 12//12 14//12 44//12
f 45//12 12//12 44//12
f 46//12 45//12 47//12
f 46//12 12//12 45//12
f 48//13 49//13 50//13
f 51//13 49//13 48//13
f 52//14 53//14 54//14
f 55//14 54//14 23//14
f 55//14 23//14 22//14
f 55//14 52//14 54//14
f 21//15 55//15 22//15
f 28//15 30//15 56//15
f 28//15 56//15 55//15
f 28//15 55//15 21//15
f 57//16 37//16 58//16
f 36//16 57//16 59//16
f 36//16 37//16 57//16
f 60//17 40//17 42//17
f 58//17 33//17 40//17
f 58//17 40//17 60//17
f 37//17 33//17 58//17
f 61//18 41//18 62//18
f 60//18 42//18 41//18
f 60//18 41//18 61//18
f 63//19 57//19 58//19
f 61//19 58//19 60//19
f 61//19 63//19 58//19
